<?xml version="1.0" encoding="iso-8859-1"?>
<!-- Uploaded to: SVG Repo, www.svgrepo.com, Generator: SVG Repo Mixer Tools -->
<svg height="800px" width="800px" version="1.1" id="Layer_1" xmlns="http://www.w3.org/2000/svg" xmlns:xlink="http://www.w3.org/1999/xlink" 
	 viewBox="0 0 503.607 503.607" xml:space="preserve">
<g transform="translate(1 1)">
	<g>
		<path style="fill:#FFE100;" d="M259.197,359.918c-4.197,0-7.554-3.357-8.393-7.554c-2.518-18.466,0-29.377,1.679-38.61
			c1.679-9.233,3.357-15.108-1.679-26.02c-1.679-4.197,0-9.233,4.197-10.911c4.197-1.679,9.233,0,10.911,4.197
			c6.715,15.948,5.036,25.18,2.518,36.092c-1.679,8.393-3.357,17.626-1.679,33.574C267.59,354.882,264.233,359.079,259.197,359.918
			C260.036,359.918,259.197,359.918,259.197,359.918z"/>
		<path style="fill:#FFE100;" d="M242.41,359.918c-2.518,0-5.036-1.679-6.715-3.357c-10.911-14.269-10.072-26.02-10.072-36.092
			c0.839-10.072,0.839-18.466-6.715-31.056c-2.518-4.197-1.679-9.233,2.518-11.751c4.197-2.518,9.233-1.679,11.751,2.518
			c10.911,16.787,10.072,30.216,10.072,40.289c0,9.233-0.839,16.787,6.715,26.02c0.839,1.679,1.679,3.357,1.679,5.036
			C250.803,356.561,247.446,359.918,242.41,359.918z"/>
		<path style="fill:#FFE100;" d="M275.984,359.918c-5.036,0-8.393-3.357-8.393-8.393c0-10.911,5.036-17.626,10.911-25.18
			c6.715-9.233,14.269-19.305,14.269-41.967c0-5.036,3.357-8.393,8.393-8.393s8.393,3.357,8.393,8.393
			c0,29.377-10.072,42.807-17.626,52.879c-5.036,5.875-7.554,9.233-7.554,14.269S281.02,359.918,275.984,359.918z"/>
		<path style="fill:#FFE100;" d="M267.59,250.803c-3.357,0-6.715-1.679-7.554-5.036c-6.715-15.948-5.036-25.18-2.518-36.092
			c1.679-8.393,3.357-17.626,1.679-33.574c-0.839-4.197,2.518-8.393,7.554-9.233c5.036-0.839,8.393,2.518,9.233,7.554
			c2.518,18.466,0,29.377-1.679,38.61c-1.679,9.233-3.357,15.108,1.679,26.02c1.679,4.197,0,9.233-4.197,10.911
			C270.108,250.803,268.43,250.803,267.59,250.803z"/>
		<path style="fill:#FFE100;" d="M301.164,250.803c-2.518,0-5.875-1.679-6.715-4.197c-10.911-16.787-10.072-30.216-10.072-40.289
			c0-9.233,0.839-16.787-6.715-26.02c-0.839-0.839-1.679-3.357-1.679-5.036c0-5.036,3.357-8.393,8.393-8.393
			c2.518,0,5.036,1.679,6.715,3.357c10.911,13.43,10.072,26.02,10.072,36.092c-0.839,10.072-0.839,18.466,6.715,31.056
			c2.518,4.197,1.679,9.233-2.518,11.751C304.521,250.803,302.843,250.803,301.164,250.803z"/>
		<path style="fill:#FFE100;" d="M225.623,250.803c-5.036,0-8.393-3.357-8.393-8.393c0-29.377,10.072-42.807,17.626-52.879
			c5.036-5.875,7.554-9.233,7.554-14.269s3.357-8.393,8.393-8.393s8.393,3.357,8.393,8.393c0,10.911-5.036,17.626-10.911,25.18
			c-6.715,8.393-14.269,18.466-14.269,41.967C234.016,247.446,230.659,250.803,225.623,250.803z"/>
		<path style="fill:#FFE100;" d="M57.754,401.885c0,51.2,41.128,92.328,92.328,92.328h25.18c51.2,0,92.328-41.128,92.328-92.328
			v-50.361h-33.574v50.361c0,32.734-26.02,58.754-58.754,58.754h-25.18c-32.734,0-58.754-26.02-58.754-58.754H57.754z"/>
		<path style="fill:#FFE100;" d="M376.705,7.393h-41.967c-51.2,0-92.328,41.967-92.328,92.328v75.541h33.574V99.721
			c0-32.734,26.02-58.754,58.754-58.754h41.967c32.734,0,58.754,26.02,58.754,58.754v394.492h33.574V99.721
			C469.033,49.361,427.905,7.393,376.705,7.393"/>
		<polygon style="fill:#FFE100;" points="32.574,351.525 116.508,351.525 116.508,200.443 32.574,200.443 		"/>
	</g>
	<polygon style="fill:#FFA800;" points="99.721,351.525 116.508,351.525 116.508,200.443 99.721,200.443 	"/>
	<polygon style="fill:#FFFFFF;" points="32.574,351.525 49.361,351.525 49.361,200.443 32.574,200.443 	"/>
	<g>
		<polygon style="fill:#FFE100;" points="40.967,200.443 108.115,200.443 108.115,82.934 40.967,82.934 		"/>
		<path style="fill:#FFE100;" d="M108.115,32.574H40.967c12.59,14.269,12.59,36.092,0,50.361l0,0h67.148l0,0
			C95.525,68.666,95.525,46.843,108.115,32.574"/>
		<polygon style="fill:#FFE100;" points="57.754,7.393 91.328,7.393 108.115,32.574 40.967,32.574 		"/>
	</g>
	<polygon style="fill:#FFA800;" points="91.328,200.443 108.115,200.443 108.115,82.934 91.328,82.934 	"/>
	<polygon style="fill:#FFFFFF;" points="40.967,200.443 57.754,200.443 57.754,82.934 40.967,82.934 	"/>
	<path style="fill:#FFE100;" d="M99.721,401.885H49.361c-5.036,0-8.393-3.357-8.393-8.393v-41.967h67.148v41.967
		C108.115,398.528,104.757,401.885,99.721,401.885"/>
	<path style="fill:#FFA800;" d="M91.328,351.525v41.967c0,5.036-3.357,8.393-8.393,8.393h16.787c5.036,0,8.393-3.357,8.393-8.393
		v-41.967H91.328z"/>
	<path style="fill:#FFFFFF;" d="M57.754,351.525v41.967c0,5.036,3.357,8.393,8.393,8.393H49.361c-5.036,0-8.393-3.357-8.393-8.393
		v-41.967H57.754z"/>
	<path d="M99.721,410.279H49.361c-9.233,0-16.787-7.554-16.787-16.787v-41.967c0-5.036,3.357-8.393,8.393-8.393h67.148
		c5.036,0,8.393,3.357,8.393,8.393v41.967C116.508,402.725,108.954,410.279,99.721,410.279z M49.361,359.918v33.574h50.361v-33.574
		H49.361z"/>
	<path d="M116.508,359.918H32.574c-5.036,0-8.393-3.357-8.393-8.393V200.443c0-5.036,3.357-8.393,8.393-8.393h83.934
		c5.036,0,8.393,3.357,8.393,8.393v151.082C124.902,356.561,121.544,359.918,116.508,359.918z M40.967,343.131h67.148V208.836
		H40.967V343.131z"/>
	<path d="M108.115,124.902H40.967c-5.036,0-8.393-3.357-8.393-8.393c0-5.036,3.357-8.393,8.393-8.393h67.148
		c5.036,0,8.393,3.357,8.393,8.393C116.508,121.544,113.151,124.902,108.115,124.902z"/>
	<path d="M108.115,208.836H40.967c-5.036,0-8.393-3.357-8.393-8.393V82.934c0-5.036,3.357-8.393,8.393-8.393h67.148
		c5.036,0,8.393,3.357,8.393,8.393v117.508C116.508,205.479,113.151,208.836,108.115,208.836z M49.361,192.049h50.361V91.328H49.361
		V192.049z"/>
	<path d="M108.115,91.328H40.967c-3.357,0-6.715-1.679-7.554-5.036c-1.679-2.518-0.839-6.715,1.679-8.393
		c9.233-11.751,9.233-28.538,0-39.449c-2.518-2.518-3.357-5.875-1.679-9.233c0.839-3.357,4.197-5.036,7.554-5.036h67.148
		c3.357,0,6.715,1.679,7.554,5.036c1.679,3.357,0.839,6.715-1.679,9.233c-9.233,10.911-9.233,27.698,0,39.449
		c2.518,2.518,2.518,5.875,1.679,9.233C114.83,89.649,111.472,91.328,108.115,91.328z M56.075,74.541h37.77
		c-4.197-10.911-4.197-22.662,0-33.574h-37.77C60.272,51.879,60.272,63.63,56.075,74.541z"/>
	<path d="M108.115,40.967L108.115,40.967H40.967c-3.357,0-5.875-1.679-7.554-4.197s-1.679-5.875,0-8.393L50.2,3.197
		C52.718,0.679,55.236-1,57.754-1h33.574c2.518,0,5.036,1.679,6.715,3.357l15.948,24.341c1.679,1.679,2.518,3.357,2.518,5.875
		C116.508,37.61,113.151,40.967,108.115,40.967z M56.915,24.18h36.092l-5.875-8.393h-25.18L56.915,24.18z"/>
	<path d="M250.803,359.918c-4.197,0-7.554-3.357-8.393-7.554c-2.518-18.466,0-29.377,1.679-38.61
		c1.679-9.233,3.357-15.108-1.679-26.02c-1.679-4.197,0-9.233,4.197-10.911c4.197-1.679,9.233,0,10.911,4.197
		c6.715,15.948,5.036,25.18,2.518,36.092c-1.679,8.393-3.357,17.626-1.679,33.574C259.197,354.882,255.839,359.079,250.803,359.918
		C251.643,359.918,250.803,359.918,250.803,359.918z"/>
	<path d="M234.016,359.918c-2.518,0-5.036-1.679-6.715-3.357c-10.911-13.429-10.072-26.02-10.072-36.092
		c0.839-10.072,0.839-18.466-6.715-31.056c-2.518-4.197-1.679-9.233,2.518-11.751c4.197-2.518,9.233-1.679,11.751,2.518
		c10.911,16.787,10.072,30.216,10.072,40.289c0,9.233-0.839,16.787,6.715,26.02c0.839,1.679,1.679,3.357,1.679,5.036
		C242.41,356.561,239.052,359.918,234.016,359.918z"/>
	<path d="M267.59,359.918c-5.036,0-8.393-3.357-8.393-8.393c0-10.911,5.036-17.626,10.911-25.18
		c6.715-9.233,14.269-19.305,14.269-41.967c0-5.036,3.357-8.393,8.393-8.393s8.393,3.357,8.393,8.393
		c0,29.377-10.072,42.807-17.626,52.879c-5.036,5.875-7.554,9.233-7.554,14.269S272.626,359.918,267.59,359.918z"/>
	<path d="M175.262,502.607h-25.18c-55.397,0-100.721-45.325-100.721-100.721c0-5.036,3.357-8.393,8.393-8.393h33.574
		c5.036,0,8.393,3.357,8.393,8.393c0,27.698,22.662,50.361,50.361,50.361h25.18c27.698,0,50.361-22.662,50.361-50.361v-50.361
		c0-5.036,3.357-8.393,8.393-8.393h33.574c5.036,0,8.393,3.357,8.393,8.393v50.361C275.984,457.282,230.659,502.607,175.262,502.607
		z M66.148,410.279c4.197,41.967,40.289,75.541,83.934,75.541h25.18c46.164,0,83.934-37.77,83.934-83.934v-41.967H242.41v41.967
		c0,36.931-30.216,67.148-67.148,67.148h-25.18c-34.413,0-62.111-26.02-66.308-58.754H66.148z"/>
	<path d="M259.197,250.803c-3.357,0-6.715-1.679-7.554-5.036c-6.715-15.948-5.036-25.18-2.518-36.092
		c1.679-8.393,3.357-17.626,1.679-33.574c-0.839-4.197,2.518-8.393,7.554-9.233c5.036-0.839,8.393,2.518,9.233,7.554
		c2.518,18.466,0,29.377-1.679,38.61c-1.679,9.233-3.357,15.108,1.679,26.02c1.679,4.197,0,9.233-4.197,10.911
		C261.715,250.803,260.036,250.803,259.197,250.803z"/>
	<path d="M292.77,250.803c-2.518,0-5.875-1.679-6.715-4.197c-10.911-16.787-10.072-30.216-10.072-40.289
		c0-9.233,0.839-16.787-6.715-26.02c-0.839-0.839-1.679-3.357-1.679-5.036c0-5.036,3.357-8.393,8.393-8.393
		c2.518,0,5.036,1.679,6.715,3.357c10.911,13.43,10.072,26.02,10.072,36.092c-0.839,10.072-0.839,18.466,6.715,31.056
		c2.518,4.197,1.679,9.233-2.518,11.751C296.128,250.803,294.449,250.803,292.77,250.803z"/>
	<path d="M217.229,250.803c-5.036,0-8.393-3.357-8.393-8.393c0-29.377,10.072-42.807,17.626-52.879
		c5.036-5.875,7.554-9.233,7.554-14.269s3.357-8.393,8.393-8.393s8.393,3.357,8.393,8.393c0,10.911-5.036,17.626-10.911,25.18
		c-6.715,8.393-14.269,18.466-14.269,41.967C225.623,247.446,222.266,250.803,217.229,250.803z"/>
	<path d="M469.033,502.607h-33.574c-5.036,0-8.393-3.357-8.393-8.393V99.721c0-27.698-22.662-50.361-50.361-50.361h-41.967
		c-27.698,0-50.361,22.662-50.361,50.361v75.541c0,5.036-3.357,8.393-8.393,8.393H242.41c-5.036,0-8.393-3.357-8.393-8.393V99.721
		C234.016,44.325,279.341-1,334.738-1h41.967c55.397,0,100.721,45.325,100.721,100.721v394.492
		C477.426,499.249,474.069,502.607,469.033,502.607z M443.852,485.82h16.787V99.721c0-46.164-37.77-83.934-83.934-83.934h-41.967
		c-46.164,0-83.934,37.77-83.934,83.934v67.148h16.787V99.721c0-36.931,30.216-67.148,67.148-67.148h41.967
		c36.931,0,67.148,30.216,67.148,67.148V485.82z"/>
</g>
</svg>